HIERARCHY
ROOT RootJoint
{
    OFFSET   0.000000   0.000000   0.000000
    CHANNELS 6 Xposition Yposition Zposition Xrotation Yrotation Zrotation
    JOINT pelvis_lowerback
    {
        OFFSET   0.000000   0.093605   0.000000
        CHANNELS 3 Xrotation Yrotation Zrotation
        JOINT lowerback_torso
        {
            OFFSET   0.000000   0.100000   0.000000
            CHANNELS 3 Xrotation Yrotation Zrotation
            JOINT torso_head
            {
                OFFSET   0.000000   0.282350   0.000000
                CHANNELS 3 Xrotation Yrotation Zrotation
                End Site
                {
                    OFFSET   0.000000   0.192650   0.000000
                }
            }
            JOINT rTorso_Clavicle
            {
                OFFSET  -0.001000   0.157500   0.000000
                CHANNELS 3 Xrotation Yrotation Zrotation
                JOINT rShoulder
                {
                    OFFSET  -0.117647   0.000000   0.000000
                    CHANNELS 3 Xrotation Yrotation Zrotation
                    JOINT rElbow
                    {
                        OFFSET  -0.245000   0.000000   0.000000
                        CHANNELS 3 Xrotation Yrotation Zrotation
                        JOINT rWrist
                        {
                            OFFSET  -0.240000   0.000000   0.000000
                            CHANNELS 3 Xrotation Yrotation Zrotation
                            End Site
                            {
                                OFFSET  -0.116353  -0.002500   0.000000
                            }
                        }
                    }
                }
            }
            JOINT lTorso_Clavicle
            {
                OFFSET   0.001000   0.157500   0.000000
                CHANNELS 3 Xrotation Yrotation Zrotation
                JOINT lShoulder
                {
                    OFFSET   0.117647   0.000000   0.000000
                    CHANNELS 3 Xrotation Yrotation Zrotation
                    JOINT lElbow
                    {
                        OFFSET   0.245000   0.000000   0.000000
                        CHANNELS 3 Xrotation Yrotation Zrotation
                        JOINT lWrist
                        {
                            OFFSET   0.240000   0.000000   0.000000
                            CHANNELS 3 Xrotation Yrotation Zrotation
                            End Site
                            {
                                OFFSET   0.116353  -0.002500   0.000000
                            }
                        }
                    }
                }
            }
        }
    }
    JOINT rHip
    {
        OFFSET  -0.100000  -0.051395   0.000000
        CHANNELS 3 Xrotation Yrotation Zrotation
        JOINT rKnee
        {
            OFFSET   0.000000  -0.410000   0.000000
            CHANNELS 3 Xrotation Yrotation Zrotation
            JOINT rAnkle
            {
                OFFSET   0.000000  -0.390000   0.000000
                CHANNELS 3 Xrotation Yrotation Zrotation
                JOINT rToeJoint
                {
                    OFFSET   0.000000  -0.050000   0.130000
                    CHANNELS 3 Xrotation Yrotation Zrotation
                    End Site
                    {
                        OFFSET  -0.010000   0.002000   0.060000
                    }
                }
            }
        }
    }
    JOINT lHip
    {
        OFFSET   0.100000  -0.051395   0.000000
        CHANNELS 3 Xrotation Yrotation Zrotation
        JOINT lKnee
        {
            OFFSET   0.000000  -0.410000   0.000000
            CHANNELS 3 Xrotation Yrotation Zrotation
            JOINT lAnkle
            {
                OFFSET   0.000000  -0.390000   0.000000
                CHANNELS 3 Xrotation Yrotation Zrotation
                JOINT lToeJoint
                {
                    OFFSET   0.000000  -0.050000   0.130000
                    CHANNELS 3 Xrotation Yrotation Zrotation
                    End Site
                    {
                        OFFSET   0.010000   0.002000   0.060000
                    }
                }
            }
        }
    }
}
MOTION
Frames: 14
Frame Time:   0.008333
 -1.627181   0.837986   4.162468  -1.954721 -13.947634   2.947298  16.251231  -5.216251   4.638453   3.937720  -5.557110   7.819822   1.485905   5.120893  -1.631798   0.368182   3.433888   0.937845  -4.580184  13.713440  52.109262 179.987123  81.523508 179.988099  -1.574970   3.801091  -2.611208  -5.294713 -11.353640   5.360159 -22.352511  -5.816848 -46.869537 179.994343 -82.019296 179.989376  -1.804158  -6.295104  12.760940 -16.519947   1.362463 -23.367574  40.412178   0.002876   0.001367 -24.373439   3.184726   3.296882   2.764398   0.001028   0.000776  -4.876476  -1.115599  26.106394  21.213588   0.004048   0.005661   3.542588  -0.103530  -9.019638 -16.526147  -0.048668  -0.058004
 -1.621622   0.836329   4.162470  -2.136237 -12.337945   2.892231  16.270409  -5.243929   4.664178   4.078475  -5.880892   7.991642   1.417085   4.895578  -1.580532   0.544555   3.221908   1.126755  -4.308692  13.110632  52.746914 179.998276  81.752247 179.980378  -1.648406   3.187373  -2.707748  -5.299904 -11.733459   5.114839 -22.125111  -6.769659 -47.808686 179.991268 -81.486137 179.981520  -1.710587  -6.116326  12.581923 -15.752973   0.900455 -23.794510  40.245302   0.001126  -0.000328 -24.547488   2.017397   3.179794   2.776035   0.000869   0.000625  -5.814096  -1.758500  25.789804  22.024532   0.007770   0.012759   2.550138  -0.721391  -8.786324 -18.706898  -0.042710  -0.057945
 -1.616144   0.834939   4.162726  -2.407599 -10.606727   2.898336  16.227817  -5.153046   4.676227   4.211447  -6.124861   8.121675   1.354683   4.685505  -1.524209   0.663267   3.085622   1.302802  -4.103838  12.591102  53.364880 -179.990630  81.932455 179.972455  -1.718012   2.729754  -2.832113  -5.221740 -12.128528   4.775268 -21.860288  -7.708396 -48.799484 179.996697 -80.946095 179.983028  -1.595277  -6.113284  12.120524 -14.821320   0.435925 -24.276569  40.097106  -0.000223  -0.001680 -24.626422   0.861524   2.991847   2.782235   0.000724   0.000509  -6.771040  -2.407645  25.353711  22.917730   0.011786   0.020152   1.648779  -1.387857  -8.601619 -20.401197  -0.037598  -0.057151
 -1.610866   0.833670   4.163154  -2.715436  -8.794345   2.928387  16.123828  -4.982958   4.677337   4.307162  -6.276766   8.223493   1.291958   4.492857  -1.466460   0.739549   3.011947   1.467545  -3.945704  12.142547  53.952750 -179.980372  82.086241 179.965019  -1.781277   2.389908  -2.915289  -5.105136 -12.485593   4.412652 -21.585678  -8.585953 -49.755908 -179.991823 -80.439955 179.992343  -1.481700  -6.138581  11.549902 -13.810602  -0.034093 -24.751427  39.989668  -0.001035  -0.002453 -24.625542  -0.221300   2.780888   2.787475   0.000605   0.000423  -7.716022  -3.035061  24.860772  23.787852   0.015261   0.026344   0.817803  -2.048805  -8.449966 -21.817403  -0.032886  -0.056149
 -1.606239   0.832876   4.163515  -3.042361  -6.914856   3.050480  15.991452  -4.742839   4.553613   4.363453  -6.339202   8.281903   1.222925   4.314230  -1.408773   0.791234   2.991688   1.669132  -3.818765  11.754325  54.529391 -179.970236  82.227391 179.957299  -1.839135   2.115011  -2.955727  -4.972449 -12.787134   4.052462 -21.312938  -9.390149 -50.643220 -179.976724 -79.975574 -179.993357  -1.374687  -6.149309  10.970225 -12.745949  -0.535771 -25.237273  39.877546  -0.001707  -0.003185 -24.517145  -1.275324   2.534633   2.156625  -0.002671  -0.001978  -8.686250  -3.666994  24.330070  24.706601   0.018056   0.032408  -0.214748  -2.706856  -8.458228 -20.028748  -0.022084  -0.030440
 -1.602072   0.832221   4.163943  -3.367463  -4.996362   3.187473  15.807025  -4.434499   4.414014   4.377428  -6.318359   8.294713   1.159475   4.149421  -1.360377   0.819039   3.003748   1.842994  -3.717957  11.414024  55.069749 -179.961849  82.350237 179.951073  -1.893811   1.896408  -2.952085  -4.835790 -13.027284   3.722390 -21.050351 -10.122496 -51.461073 -179.961148 -79.544948 -179.977422  -1.277578  -6.132310  10.447775 -11.658351  -1.059501 -25.666949  39.783111  -0.002108  -0.003620 -24.359091  -2.259861   2.288217   1.355252  -0.006043  -0.005413  -9.637385  -4.272901  23.780097  25.532213   0.019829   0.036308  -1.025303  -3.357178  -8.427387 -18.479807  -0.014024  -0.011549
 -1.598309   0.831570   4.164464  -3.686287  -3.033823   3.325925  15.578051  -4.079546   4.262699   4.345354  -6.232349   8.280201   1.099598   3.997181  -1.317068   0.824074   3.037278   1.988056  -3.640595  11.110574  55.568259 -179.955385  82.458148 179.946516  -1.943758   1.727010  -2.927808  -4.704217 -13.211346   3.428322 -20.803430 -10.787910 -52.206304 -179.946686 -79.145059 -179.961791  -1.187385  -6.096182   9.998922 -10.555913  -1.603032 -26.028932  39.722873  -0.002165  -0.003608 -24.184666  -3.177426   2.054063   0.410756  -0.009234  -0.009940 -10.573745  -4.844581  23.225822  26.279944   0.020854   0.038732  -1.723838  -3.964817  -8.383364 -16.999273  -0.007682   0.003918
 -1.594370   0.832092   4.165202  -4.006209  -0.825542   3.540738  15.211660  -3.556212   4.206659   4.329655  -6.161374   8.229599   1.194437   3.404830  -1.201921   0.960357   3.186944   1.932857  -3.894554  10.780263  55.971845 179.989584  82.147172 -179.996533  -2.087015   1.066824  -3.018050  -4.535302 -13.350326   3.179783 -20.295225 -11.674956 -53.341011 -179.922008 -78.443282 -179.939056  -1.175797  -5.897078   9.707631  -9.439870  -2.398744 -26.358544  39.635980  -0.002374  -0.003964 -23.400704  -4.658814   1.780204  -1.157998  -0.014641  -0.009981 -11.227340  -5.746970  22.508290  26.441149   0.017699   0.032743  -2.058879  -4.956109  -8.020146 -16.043245  -0.005017   0.005757
 -1.590412   0.833011   4.166083  -4.308274   1.525327   3.802601  14.757570  -2.972819   4.171660   4.256656  -6.023907   8.147748   1.302698   2.839258  -1.074164   0.997379   3.378971   1.775595  -4.215972  10.508691  56.310355 179.938398  81.797787 -179.944298  -2.208980   0.666833  -3.136512  -4.311973 -13.462803   2.930611 -19.780152 -12.535196 -54.445855 -179.898401 -77.751108 -179.916067  -1.153107  -5.834590   9.222666  -8.279352  -3.233069 -26.654645  39.513551  -0.002870  -0.004824 -22.414884  -6.105940   1.452816  -3.111294  -0.022767  -0.013973 -11.886592  -6.602303  21.694868  26.411350   0.013969   0.025831  -2.197321  -5.921593  -7.622313 -15.111492  -0.003040   0.008436
 -1.586756   0.833774   4.167130  -4.572159   4.033664   4.109047  14.208112  -2.365526   4.084456   4.095405  -5.830705   8.033508   1.405146   2.312667  -0.944291   0.978871   3.588729   1.577877  -4.564967  10.274942  56.607098 179.896305  81.445020 -179.901780  -2.311702   0.448968  -3.273233  -4.084647 -13.530302   2.721800 -19.289336 -13.335857 -55.460824 -179.876014 -77.100391 -179.892623  -1.128950  -5.797136   8.691663  -6.984946  -4.044727 -26.918859  39.370388  -0.003620  -0.006052 -21.169771  -7.428848   1.082971  -6.659432  -0.042975  -0.035383 -12.626510  -7.408952  20.816037  26.307412   0.010464   0.019249  -2.295073  -6.842625  -7.252721 -14.038921  -0.001246   0.013193
 -1.583294   0.834485   4.168289  -4.827944   6.637026   4.403666  13.631022  -1.719601   3.998965   3.870107  -5.577886   7.895180   1.494360   1.823866  -0.825039   0.914216   3.816717   1.356743  -4.932127  10.067990  56.857829 179.864793  81.107046 -179.870133  -2.400628   0.327508  -3.438800  -3.872643 -13.557587   2.540292 -18.836084 -14.070507 -56.385809 -179.857219 -76.494435 -179.871719  -1.105070  -5.755639   8.227873  -5.684869  -4.871508 -27.092296  39.275957  -0.003815  -0.006358 -20.101385  -8.687571   0.788375  -9.031050  -0.048829  -0.049581 -13.394760  -8.154559  19.926270  26.151784   0.007281   0.013095  -2.361111  -7.701172  -6.900656 -12.857441   0.000404   0.019665
 -1.580097   0.835006   4.169589  -5.069491   9.352611   4.702586  13.019976  -1.062120   3.877292   3.591227  -5.286363   7.735613   1.574821   1.369172  -0.713403   0.824239   4.050190   1.129211  -5.301755   9.883705  57.079853 179.841766  80.783883 -179.847105  -2.479569   0.269529  -3.617778  -3.680543 -13.547774   2.395954 -18.420263 -14.743221 -57.222289 -179.842141 -75.929463 -179.853927  -1.082675  -5.705506   7.843504  -4.334484  -5.676002 -27.174453  39.210648  -0.003741  -0.006217 -18.992550  -9.823933   0.514726 -11.659222  -0.054608  -0.071067 -14.209327  -8.851527  19.010719  25.965132   0.004504   0.007479  -2.424264  -8.510396  -6.580862 -11.587492   0.002125   0.027602
 -1.577133   0.835348   4.171022  -5.300894  12.165385   4.998499  12.393776  -0.397758   3.729109   3.272536  -4.965744   7.554813   1.646046   0.946334  -0.612331   0.716703   4.285645   0.900970  -5.667888   9.718279  57.276219 179.825975  80.477810 -179.831331  -2.550703   0.253507  -3.802870  -3.509487 -13.508931   2.280323 -18.041164 -15.358600 -57.979782 -179.831057 -75.402766 -179.839935  -1.061052  -5.649715   7.544584  -2.957773  -6.465054 -27.153044  39.197243  -0.003141  -0.005220 -17.934876 -10.859351   0.280292 -13.976144  -0.055669  -0.090200 -15.057818  -9.496068  18.074697  25.750972   0.002080   0.002297  -2.492073  -9.269397  -6.292323 -10.419835   0.003705   0.034785
 -1.574413   0.836182   4.172620  -5.629391  14.750869   5.355274  11.857307   0.529791   3.560147   3.005892  -4.548025   7.288695   1.953783   0.192901  -0.424713   0.622183   4.624138   0.371478  -6.209640   9.417902  57.170638 179.824025  80.247107 -179.830257  -2.581167   0.133924  -3.696557  -3.422238 -13.294359   2.239245 -17.294837 -15.929657 -58.754798 -179.803526 -74.634251 -179.809570  -1.090538  -5.575793   7.308821  -1.537947  -7.237930 -27.037860  39.077698  -0.003705  -0.006220 -17.002314 -11.996553  -0.025335 -15.116889  -0.050211  -0.086186 -15.499975 -10.096341  17.179682  25.148688  -0.001907  -0.007277  -2.365317 -10.212627  -6.009657  -9.279935   0.004992   0.035819
